# xmcd
#
# Track frame offsets:
#	150
#	16527
#	32698
#	51246
#	62073
#	79537
#	98184
#	113040
#	131142
#	148146
#	164650
#	178226
#	196623
#	212500
#	229064
#	256769
#	275321
#	290025
#	315727
#
# Disc length: 4215
#
# Revision: 2
# Processed by: cddbd v1.5.1PL0 Copyright (c) Steve Scherf et al.
# Submitted via: audiograbber 1.83.01
# Normalized: r1:DSETVAR1
#
DISCID=0d107513
DTITLE=Various Artist - Top Tunes - TT-228 Country Vol 35
DYEAR=2004
DGENRE=Karaoke
TTITLE0=George Strait - As Far as it Goes
TTITLE1=Chris Cagle - Chicks Dig it
TTITLE2=George Strait - Desperately
TTITLE3=Tracy Byrd - Drinkin' Bone
TTITLE4=Craig Morgan - Every Friday Afternoon
TTITLE5=Jessica Andrews - Good Time
TTITLE6=Scotty Emerick - I Can't Take You Anywhere
TTITLE7=Toby Keith - I Love This Bar
TTITLE8=Jo Dee Messina - I Wish
TTITLE9=Patty Loveless - Lovin' All Night
TTITLE10=Randy Travis - Pray for the fish
TTITLE11=Ryan Tyler - Run Run Run
TTITLE12=Dusty Drake - Smaller Pieces
TTITLE13=Tim McGraw - That's Why God Made Mexico
TTITLE14=Dixie Chicks - Top of the World
TTITLE15=Lonestar - Walking in Memphis
TTITLE16=Jeff Bates - Wanna Make You Cry
TTITLE17=Diamond Rio - Wrinkles
TTITLE18=None - Data Track
EXTD=
EXTT0=
EXTT1=
EXTT2=
EXTT3=
EXTT4=
EXTT5=
EXTT6=
EXTT7=
EXTT8=
EXTT9=
EXTT10=
EXTT11=
EXTT12=
EXTT13=
EXTT14=
EXTT15=
EXTT16=
EXTT17=
EXTT18=
PLAYORDER=
